# xmcd
# 
# Track frame offsets:
#     150
#     2141
#     23935
#     46035
#     67337
#     90941
#     114997
#     135659
#     157361
#     177206
#     191397
#     213452
#     235402
#     260497
#     279589
#     304972
# 
# Disc length: 4426
# 
# Revision: 1
# Processed by: cddbd v1.5.2PL0 Copyright (c) Steve Scherf et al.
# Submitted via: fre:ac v1.0.17
# 
DISCID=e2114810
DTITLE=J.R.R. Tolkien - Der Hobbit
DYEAR=1980
DGENRE=Hörbuch
TTITLE0=01 - Einleitung
TTITLE1=02 - Eine unvorhergesehene Gesellschaft 1
TTITLE2=03 - Eine unvorhergesehene Gesellschaft 2
TTITLE3=04 - Eine unvorhergesehene Gesellschaft 3
TTITLE4=05 - Eine unvorhergesehene Gesellschaft 4
TTITLE5=06 - Eine unvorhergesehene Gesellschaft 5
TTITLE6=07 - Eine unvorhergesehene Gesellschaft 6
TTITLE7=08 - Eine unvorhergesehene Gesellschaft 7
TTITLE8=09 - Eine unvorhergesehene Gesellschaft 8
TTITLE9=10 - Gebratenes Hammelfleisch 1
TTITLE10=11 - Gebratenes Hammelfleisch 2
TTITLE11=12 - Gebratenes Hammelfleisch 3
TTITLE12=13 - Gebratenes Hammelfleisch 4
TTITLE13=14 - Eine kurze Rast 1
TTITLE14=15 - Eine kurze Rast 2
TTITLE15=16 - Über den Berg und unter den Berg 1
EXTD=CD 1 von 4
EXTT0=
EXTT1=
EXTT2=
EXTT3=
EXTT4=
EXTT5=
EXTT6=
EXTT7=
EXTT8=
EXTT9=
EXTT10=
EXTT11=
EXTT12=
EXTT13=
EXTT14=
EXTT15=
PLAYORDER=
